<svg width="764" height="56" viewBox="0 0 764 56" fill="none" xmlns="http://www.w3.org/2000/svg">
<path d="M0.000305176 5.50933V0H37.6777V5.50933H22.4715V41.3099H15.3376V5.50933H0.000305176Z" fill="#F6F6F6" style="fill:#F6F6F6;fill:color(display-p3 0.9647 0.9647 0.9647);fill-opacity:1;"/>
<path d="M53.1762 10.1711C54.9924 9.27303 57.0509 8.82905 59.3414 8.82905C63.3876 8.82905 66.556 9.9289 68.8566 12.1185C71.1471 14.3081 72.2974 17.5168 72.2974 21.7245V41.32H65.2846V22.9152C65.2846 20.1202 64.5581 17.981 63.095 16.4977C61.6319 15.0144 59.634 14.2778 57.0912 14.2778C54.3769 14.2778 52.2075 15.1254 50.583 16.8105C48.9584 18.4956 48.1411 20.9476 48.1411 24.1664V41.32H41.1283V0H48.1411V13.955H48.8272C49.917 12.3304 51.3599 11.0691 53.1762 10.1711Z" fill="#F6F6F6" style="fill:#F6F6F6;fill:color(display-p3 0.9647 0.9647 0.9647);fill-opacity:1;"/>
<path d="M79.6137 37.3039C76.8187 34.2163 75.4161 30.2507 75.4161 25.4074C75.4161 22.1986 76.0417 19.3431 77.2929 16.8609C78.5441 14.3786 80.421 12.4211 82.9234 10.9782C85.4258 9.53526 88.5134 8.81885 92.1863 8.81885C97.4434 8.81885 101.419 10.2517 104.113 13.1072C106.807 15.9628 108.149 19.7971 108.149 24.5901C108.149 25.6294 108.109 26.366 108.028 26.7797H82.2372C82.5298 33.7521 85.9101 37.2333 92.378 37.2333C94.9611 37.2333 96.9994 36.6985 98.4827 35.639C99.966 34.5795 100.955 33.0861 101.459 31.169H108.159C107.574 34.297 106 36.8801 103.437 38.8982C100.874 40.9263 97.1205 41.9354 92.1964 41.9354C86.6063 41.9354 82.4088 40.3915 79.6137 37.3039ZM101.459 22.5922C101.338 19.5449 100.47 17.2645 98.8661 15.7408C97.2617 14.2172 95.0822 13.4503 92.3276 13.4503C89.5729 13.4503 87.1512 14.2273 85.4459 15.761C83.7306 17.3048 82.7115 19.5752 82.3785 22.5821H101.469L101.459 22.5922Z" fill="#F6F6F6" style="fill:#F6F6F6;fill:color(display-p3 0.9647 0.9647 0.9647);fill-opacity:1;"/>
<path d="M139.485 2.32324V19.7896H162.834V2.32324H170.16V43.6331H162.834V25.2889H139.485V43.6331H132.159V2.32324H139.485Z" fill="#F6F6F6" style="fill:#F6F6F6;fill:color(display-p3 0.9647 0.9647 0.9647);fill-opacity:1;"/>
<path d="M191.653 42.9369C189.675 43.9358 187.223 44.4403 184.297 44.4403C181.169 44.4403 178.596 43.6533 176.598 42.0893C174.6 40.5253 173.591 38.3054 173.591 35.4196C173.591 32.8364 174.409 30.7679 176.033 29.2241C177.658 27.6803 180.352 26.5905 184.105 25.9649L192.057 24.6532C193.812 24.3605 195.013 23.967 195.689 23.4625C196.365 22.958 196.688 22.1709 196.688 21.0812C196.688 19.497 196.113 18.266 194.963 17.3881C193.812 16.5102 191.885 16.0764 189.171 16.0764C183.702 16.0764 180.967 18.2054 180.967 22.4635H174.267C174.267 19.0026 175.569 16.2681 178.182 14.2601C180.786 12.2521 184.428 11.2532 189.1 11.2532C193.772 11.2532 197.182 12.1512 199.463 13.9473C201.743 15.7434 202.894 18.266 202.934 21.5251L203.307 43.623H197.172L196.981 38.9915H196.163C195.124 40.6161 193.61 41.9379 191.623 42.9369H191.653ZM186.305 39.8088C188.515 39.8088 190.412 39.3346 192.006 38.3962C193.59 37.4578 194.781 36.2066 195.578 34.6426C196.375 33.0786 196.769 31.4238 196.769 29.6681V27.6702L186.567 29.547C184.559 29.9203 183.066 30.5459 182.057 31.4238C181.058 32.3016 180.554 33.4721 180.554 34.9251C180.554 38.1843 182.471 39.8088 186.315 39.8088H186.305Z" fill="#F6F6F6" style="fill:#F6F6F6;fill:color(display-p3 0.9647 0.9647 0.9647);fill-opacity:1;"/>
<path d="M208.713 19.2852C210.004 16.7828 211.942 14.795 214.535 13.3419C217.118 11.8788 220.296 11.1523 224.05 11.1523C229.055 11.1523 232.94 12.3531 235.694 14.7546C238.449 17.1561 239.973 20.3144 240.265 24.2395H233.505C233.131 21.616 232.153 19.6585 230.558 18.3871C228.974 17.1157 226.865 16.48 224.232 16.48C220.892 16.48 218.319 17.3983 216.502 19.2347C214.686 21.0712 213.778 23.9267 213.778 27.8115C213.778 31.6963 214.656 34.4207 216.412 36.2571C218.167 38.0936 220.67 39.0118 223.919 39.0118C226.795 39.0118 229.065 38.3055 230.71 36.8827C232.354 35.46 233.333 33.4419 233.616 30.8083H240.376C240.255 33.3915 239.549 35.7022 238.277 37.7202C237.006 39.7484 235.17 41.3427 232.768 42.5031C230.367 43.6735 227.461 44.2588 224.04 44.2588C220.286 44.2588 217.098 43.5424 214.494 42.0994C211.881 40.6565 209.944 38.699 208.672 36.2168C207.401 33.7345 206.765 30.9294 206.765 27.8014C206.765 24.6734 207.411 21.7876 208.703 19.2852H208.713Z" fill="#F6F6F6" style="fill:#F6F6F6;fill:color(display-p3 0.9647 0.9647 0.9647);fill-opacity:1;"/>
<path d="M250.77 35.5506V43.6229H243.818V2.31299H250.77V27.5994L267.359 11.8887H275.814L261.042 25.9143L276.5 43.6229H268.176L256.663 29.9807L250.78 35.5506H250.77Z" fill="#F6F6F6" style="fill:#F6F6F6;fill:color(display-p3 0.9647 0.9647 0.9647);fill-opacity:1;"/>
<path d="M294.865 42.9369C292.887 43.9358 290.435 44.4403 287.509 44.4403C284.381 44.4403 281.808 43.6533 279.81 42.0893C277.812 40.5253 276.803 38.3054 276.803 35.4196C276.803 32.8364 277.62 30.7679 279.245 29.2241C280.869 27.6803 283.563 26.5905 287.317 25.9649L295.268 24.6532C297.024 24.3605 298.225 23.967 298.901 23.4625C299.577 22.958 299.9 22.1709 299.9 21.0812C299.9 19.497 299.324 18.266 298.174 17.3881C297.024 16.5102 295.097 16.0764 292.382 16.0764C286.913 16.0764 284.179 18.2054 284.179 22.4635H277.479C277.479 19.0026 278.781 16.2681 281.394 14.2601C283.997 12.2521 287.64 11.2532 292.312 11.2532C296.984 11.2532 300.394 12.1512 302.674 13.9473C304.955 15.7434 306.105 18.266 306.146 21.5251L306.519 43.623H300.384L300.192 38.9915H299.375C298.336 40.6161 296.822 41.9379 294.834 42.9369H294.865ZM289.517 39.8088C291.726 39.8088 293.623 39.3346 295.218 38.3962C296.802 37.4578 297.993 36.2066 298.79 34.6426C299.587 33.0786 299.98 31.4238 299.98 29.6681V27.6702L289.779 29.547C287.771 29.9203 286.278 30.5459 285.269 31.4238C284.27 32.3016 283.765 33.4721 283.765 34.9251C283.765 38.1843 285.682 39.8088 289.527 39.8088H289.517Z" fill="#F6F6F6" style="fill:#F6F6F6;fill:color(display-p3 0.9647 0.9647 0.9647);fill-opacity:1;"/>
<path d="M308.103 17.0245L308.164 11.8885H316.862V11.2024L314.793 10.3851C313.794 9.97138 313.29 9.2146 313.29 8.13493V2H321.362V11.828L331.563 11.8885V17.0245H321.301V38.3051H332.32V43.6227H322.684C319.556 43.6227 317.396 43.0274 316.206 41.8367C315.015 40.646 314.42 38.6986 314.42 35.9843V17.0144H308.093L308.103 17.0245Z" fill="#F6F6F6" style="fill:#F6F6F6;fill:color(display-p3 0.9647 0.9647 0.9647);fill-opacity:1;"/>
<path d="M347.819 12.4942C349.635 11.5962 351.694 11.1522 353.984 11.1522C358.031 11.1522 361.199 12.2521 363.5 14.4417C365.79 16.6313 366.94 19.84 366.94 24.0477V43.6431H359.928V25.2383C359.928 22.4433 359.201 20.3042 357.738 18.8209C356.275 17.3376 354.277 16.601 351.734 16.601C349.02 16.601 346.85 17.4486 345.226 19.1337C343.601 20.8188 342.784 23.2707 342.784 26.4895V43.6431H335.771V2.33325H342.784V16.2882H343.47C344.56 14.6637 346.003 13.4024 347.819 12.5043V12.4942Z" fill="#F6F6F6" style="fill:#F6F6F6;fill:color(display-p3 0.9647 0.9647 0.9647);fill-opacity:1;"/>
<path d="M377.806 42.0994C375.193 40.6565 373.256 38.699 371.984 36.2168C370.713 33.7345 370.077 30.9294 370.077 27.8014C370.077 24.6734 370.713 21.7876 371.984 19.2852C373.256 16.7828 375.193 14.795 377.806 13.3419C380.41 11.8788 383.659 11.1523 387.544 11.1523C391.428 11.1523 394.657 11.8788 397.24 13.3419C399.824 14.805 401.761 16.7928 403.032 19.3154C404.304 21.838 404.939 24.6633 404.939 27.8014C404.939 30.9395 404.304 33.674 403.032 36.1562C401.761 38.6385 399.834 40.6061 397.24 42.0692C394.657 43.5323 391.418 44.2588 387.544 44.2588C383.669 44.2588 380.42 43.5424 377.806 42.0994ZM379.774 36.1159C381.57 37.9927 384.153 38.9311 387.534 38.9311C390.914 38.9311 393.446 37.9927 395.263 36.1159C397.079 34.2391 397.987 31.4642 397.987 27.7913C397.987 24.1184 397.079 21.3133 395.263 19.376C393.446 17.4386 390.873 16.47 387.534 16.47C384.194 16.47 381.57 17.4285 379.774 19.3457C377.978 21.2629 377.08 24.0781 377.08 27.7913C377.08 31.5046 377.978 34.2391 379.774 36.1159Z" fill="#F6F6F6" style="fill:#F6F6F6;fill:color(display-p3 0.9647 0.9647 0.9647);fill-opacity:1;"/>
<path d="M420.369 12.4944C422.145 11.5963 424.194 11.1523 426.535 11.1523C430.581 11.1523 433.729 12.2522 435.989 14.4418C438.239 16.6314 439.37 19.8401 439.37 24.0478V43.6433H432.488V25.2385C432.488 22.4434 431.761 20.3043 430.298 18.821C428.835 17.3377 426.837 16.6011 424.284 16.6011C421.53 16.6011 419.35 17.4487 417.746 19.1338C416.142 20.8189 415.334 23.2708 415.334 26.4897V43.6433H408.382V11.9091H415.334V16.2883H416.02C417.151 14.6638 418.594 13.4025 420.369 12.5044V12.4944Z" fill="#F6F6F6" style="fill:#F6F6F6;fill:color(display-p3 0.9647 0.9647 0.9647);fill-opacity:1;"/>
<path d="M500.462 40.303C496.98 43.1384 491.955 44.5611 485.407 44.5611C480.523 44.5611 476.436 43.6429 473.137 41.8064C469.837 39.97 467.385 37.4373 465.781 34.1983C464.177 30.9694 463.369 27.2662 463.369 23.0888C463.369 18.9114 464.177 15.4908 465.781 12.3224C467.385 9.15407 469.847 6.64156 473.167 4.78494C476.487 2.92831 480.563 2 485.407 2C491.703 2 496.587 3.33193 500.058 6.00587C503.519 8.67981 505.648 12.5141 506.445 17.519H499.119C498.494 14.1791 497.051 11.6968 494.801 10.0723C492.551 8.44773 489.463 7.63042 485.538 7.63042C480.785 7.63042 477.153 8.94216 474.65 11.5757C472.148 14.2093 470.897 18.0437 470.897 23.0888C470.897 28.134 472.118 32.2509 474.56 34.9147C477.001 37.5887 480.604 38.9206 485.356 38.9206C493.62 38.9206 498.272 35.2881 499.311 28.0331H506.697C506.031 33.3709 503.953 37.4676 500.472 40.303H500.462Z" fill="#F6F6F6" style="fill:#F6F6F6;fill:color(display-p3 0.9647 0.9647 0.9647);fill-opacity:1;"/>
<path d="M517.868 42.3917C515.255 40.9488 513.318 38.9912 512.046 36.509C510.775 34.0268 510.139 31.2217 510.139 28.0937C510.139 24.9656 510.775 22.0798 512.046 19.5774C513.318 17.075 515.255 15.0872 517.868 13.6342C520.472 12.1711 523.721 11.4446 527.606 11.4446C531.49 11.4446 534.719 12.1711 537.302 13.6342C539.886 15.0973 541.823 17.0851 543.094 19.6077C544.366 22.1303 545.001 24.9556 545.001 28.0937C545.001 31.2318 544.366 33.9662 543.094 36.4485C541.823 38.9307 539.896 40.8983 537.302 42.3614C534.719 43.8245 531.48 44.551 527.606 44.551C523.731 44.551 520.482 43.8346 517.868 42.3917ZM519.836 36.4182C521.632 38.295 524.215 39.2334 527.595 39.2334C530.976 39.2334 533.508 38.295 535.325 36.4182C537.141 34.5414 538.049 31.7665 538.049 28.0937C538.049 24.4208 537.141 21.6157 535.325 19.6783C533.508 17.741 530.935 16.7723 527.595 16.7723C524.256 16.7723 521.632 17.7309 519.836 19.648C518.04 21.5652 517.142 24.3804 517.142 28.0937C517.142 31.8069 518.04 34.5414 519.836 36.4182Z" fill="#F6F6F6" style="fill:#F6F6F6;fill:color(display-p3 0.9647 0.9647 0.9647);fill-opacity:1;"/>
<path d="M548.44 12.1913H555.453V16.3889H556.139C557.229 14.8047 558.631 13.5837 560.367 12.7261C562.103 11.8684 564.07 11.4446 566.28 11.4446C568.823 11.4446 571.103 11.9188 573.101 12.8572C575.099 13.7956 576.602 15.1578 577.611 16.9539H578.429C580.719 13.281 584.271 11.4446 589.074 11.4446C593.161 11.4446 596.41 12.5545 598.811 14.7643C601.213 16.9741 602.413 20.1727 602.413 24.34V43.9355H595.401V25.0968C595.401 22.4733 594.644 20.4452 593.12 19.0224C591.597 17.6098 589.579 16.8934 587.076 16.8934C585.028 16.8934 583.282 17.4282 581.819 18.4876C580.356 19.5471 579.418 21.0405 579.004 22.9577V43.9254H572.122V24.7739C572.122 22.1504 571.416 20.1727 569.993 18.861C568.57 17.5492 566.613 16.8934 564.111 16.8934C561.437 16.8934 559.328 17.7107 557.784 19.3352C556.24 20.9598 555.463 23.3411 555.463 26.4691V43.9355H548.45V12.2014L548.44 12.1913Z" fill="#F6F6F6" style="fill:#F6F6F6;fill:color(display-p3 0.9647 0.9647 0.9647);fill-opacity:1;"/>
<path d="M605.835 12.1913H612.788V16.5099H613.605C616.027 13.1297 619.821 11.4446 624.997 11.4446C630.173 11.4446 633.675 12.948 636.268 15.955C638.851 18.9619 640.153 22.9476 640.153 27.912C640.153 32.8765 638.851 36.8924 636.238 39.9599C633.624 43.0274 629.881 44.5611 624.997 44.5611C619.74 44.5611 615.926 42.8054 613.544 39.304H612.798V54.7625H605.846V12.2014L605.835 12.1913ZM615.603 36.2265C617.48 38.2244 620.002 39.2334 623.181 39.2334C626.359 39.2334 628.801 38.2748 630.537 36.3577C632.272 34.4405 633.13 31.6253 633.13 27.912C633.13 24.1988 632.252 21.4542 630.506 19.5572C628.751 17.6602 626.268 16.7117 623.06 16.7117C619.851 16.7117 617.439 17.6905 615.583 19.6581C613.726 21.6156 612.798 24.3501 612.798 27.8515C612.798 31.3528 613.736 34.2387 615.613 36.2366L615.603 36.2265Z" fill="#F6F6F6" style="fill:#F6F6F6;fill:color(display-p3 0.9647 0.9647 0.9647);fill-opacity:1;"/>
<path d="M661.009 43.2394C659.032 44.2383 656.58 44.7428 653.653 44.7428C650.525 44.7428 647.952 43.9558 645.954 42.3918C643.957 40.8278 642.948 38.6079 642.948 35.722C642.948 33.1389 643.765 31.0704 645.389 29.5266C647.014 27.9827 649.708 26.893 653.462 26.2674L661.413 24.9556C663.169 24.663 664.369 24.2695 665.045 23.765C665.721 23.2605 666.044 22.4734 666.044 21.3837C666.044 19.7995 665.469 18.5685 664.319 17.6906C663.169 16.8127 661.241 16.3788 658.527 16.3788C653.058 16.3788 650.324 18.5079 650.324 22.766H643.624C643.624 19.3051 644.925 16.5706 647.539 14.5626C650.142 12.5546 653.785 11.5557 658.456 11.5557C663.128 11.5557 666.539 12.4537 668.819 14.2498C671.1 16.0459 672.25 18.5685 672.29 21.8276L672.664 43.9255H666.529L666.337 39.294H665.52C664.48 40.9186 662.967 42.2404 660.979 43.2394H661.009ZM655.661 40.1113C657.871 40.1113 659.768 39.6371 661.362 38.6987C662.947 37.7603 664.137 36.5091 664.934 34.9451C665.732 33.3811 666.125 31.7263 666.125 29.9705V27.9727L655.924 29.8495C653.916 30.2228 652.422 30.8484 651.413 31.7263C650.414 32.6041 649.91 33.7746 649.91 35.2276C649.91 38.4868 651.827 40.1113 655.671 40.1113H655.661Z" fill="#F6F6F6" style="fill:#F6F6F6;fill:color(display-p3 0.9647 0.9647 0.9647);fill-opacity:1;"/>
<path d="M688.111 12.7866C689.887 11.8886 691.936 11.4446 694.277 11.4446C698.323 11.4446 701.471 12.5444 703.731 14.734C705.981 16.9236 707.112 20.1324 707.112 24.34V43.9355H700.23V25.5307C700.23 22.7357 699.503 20.5965 698.04 19.1133C696.577 17.63 694.579 16.8934 692.026 16.8934C689.272 16.8934 687.092 17.741 685.488 19.426C683.884 21.1111 683.076 23.5631 683.076 26.7819V43.9355H676.124V12.2014H683.076V16.5806H683.762C684.893 14.956 686.335 13.6947 688.111 12.7967V12.7866Z" fill="#F6F6F6" style="fill:#F6F6F6;fill:color(display-p3 0.9647 0.9647 0.9647);fill-opacity:1;"/>
<path d="M712.742 48.0624L716.808 49.7474C717.353 49.9593 717.827 50.0602 718.251 50.0602C719.169 50.0602 719.835 49.6263 720.249 48.7485L722.57 43.552L708.363 12.1912H715.628L726.081 37.5381L737.039 12.1912H744.113L726.081 50.9986C725.284 52.6232 724.255 53.8643 722.984 54.722C721.712 55.5797 720.239 56.0034 718.574 56.0034C716.778 56.0034 714.841 55.4989 712.752 54.5L710.31 53.4304L712.752 48.0523L712.742 48.0624Z" fill="#F6F6F6" style="fill:#F6F6F6;fill:color(display-p3 0.9647 0.9647 0.9647);fill-opacity:1;"/>
<path d="M753.396 24.3284C752.345 23.7574 751.519 22.9722 750.918 21.9728C750.316 20.9735 750 19.8518 750 18.5874C750 17.3229 750.306 16.2318 750.928 15.2325C751.55 14.2332 752.376 13.448 753.426 12.8668C754.477 12.2855 755.608 12 756.853 12C758.097 12 759.259 12.2855 760.309 12.8668C761.36 13.448 762.186 14.2332 762.808 15.2325C763.43 16.2318 763.736 17.3535 763.736 18.5874C763.736 19.8212 763.43 20.9735 762.808 21.9728C762.186 22.9722 761.36 23.7574 760.309 24.3284C759.259 24.8994 758.107 25.185 756.853 25.185C755.598 25.185 754.446 24.8994 753.396 24.3284ZM752.152 21.259C752.641 22.0646 753.294 22.7071 754.12 23.1761C754.946 23.6452 755.863 23.8797 756.873 23.8797C757.882 23.8797 758.78 23.6452 759.616 23.1761C760.452 22.7071 761.115 22.0748 761.604 21.259C762.094 20.4433 762.328 19.5561 762.328 18.5874C762.328 17.6187 762.084 16.7009 761.604 15.8953C761.115 15.0898 760.462 14.4473 759.616 13.9783C758.78 13.5092 757.862 13.2746 756.873 13.2746C755.884 13.2746 754.946 13.5092 754.12 13.9783C753.294 14.4473 752.631 15.0796 752.152 15.8953C751.662 16.7009 751.428 17.5983 751.428 18.5874C751.428 19.5765 751.672 20.4433 752.152 21.259ZM754.191 15.1101H757.617C758.362 15.1101 758.923 15.2733 759.3 15.6098C759.677 15.9463 759.871 16.4154 759.871 17.017C759.871 17.4147 759.769 17.7512 759.575 18.0265C759.371 18.3019 759.096 18.4956 758.729 18.6078V18.6894C759.075 18.7811 759.32 18.9545 759.473 19.189C759.626 19.4236 759.687 19.7601 759.677 20.1781V20.8919C759.677 21.259 759.738 21.6771 759.85 22.1462H758.566C758.484 21.7893 758.453 21.3712 758.453 20.8919V20.2087C758.453 19.5255 758.066 19.1788 757.281 19.1788H755.486V22.1462H754.201V15.1L754.191 15.1101ZM757.332 18.1693C758.168 18.1693 758.586 17.8328 758.586 17.17C758.586 16.8131 758.494 16.5581 758.311 16.4154C758.127 16.2726 757.842 16.2013 757.444 16.2013H755.476V18.1693H757.332Z" fill="#F6F6F6" style="fill:#F6F6F6;fill:color(display-p3 0.9647 0.9647 0.9647);fill-opacity:1;"/>
</svg>
